<?xml version="1.0" standalone="no"?>
<svg xmlns:xlink="http://www.w3.org/1999/xlink" id="wave" style="transform:rotate(0deg); transition: 0.3s" viewBox="0 0 1440 490" version="1.1" xmlns="http://www.w3.org/2000/svg"><defs><linearGradient id="sw-gradient-0" x1="0" x2="0" y1="1" y2="0"><stop stop-color="rgba(0, 152, 255, 1)" offset="0%"/><stop stop-color="rgba(0, 152, 255, 1)" offset="100%"/></linearGradient></defs><path style="transform:translate(0, 0px); opacity:1" fill="url(#sw-gradient-0)" d="M0,196L40,163.3C80,131,160,65,240,40.8C320,16,400,33,480,98C560,163,640,278,720,294C800,310,880,229,960,187.8C1040,147,1120,147,1200,171.5C1280,196,1360,245,1440,261.3C1520,278,1600,261,1680,269.5C1760,278,1840,310,1920,269.5C2000,229,2080,114,2160,106.2C2240,98,2320,196,2400,212.3C2480,229,2560,163,2640,130.7C2720,98,2800,98,2880,147C2960,196,3040,294,3120,343C3200,392,3280,392,3360,392C3440,392,3520,392,3600,383.8C3680,376,3760,359,3840,359.3C3920,359,4000,376,4080,318.5C4160,261,4240,131,4320,73.5C4400,16,4480,33,4560,81.7C4640,131,4720,212,4800,245C4880,278,4960,261,5040,285.8C5120,310,5200,376,5280,367.5C5360,359,5440,278,5520,277.7C5600,278,5680,359,5720,400.2L5760,441L5760,490L5720,490C5680,490,5600,490,5520,490C5440,490,5360,490,5280,490C5200,490,5120,490,5040,490C4960,490,4880,490,4800,490C4720,490,4640,490,4560,490C4480,490,4400,490,4320,490C4240,490,4160,490,4080,490C4000,490,3920,490,3840,490C3760,490,3680,490,3600,490C3520,490,3440,490,3360,490C3280,490,3200,490,3120,490C3040,490,2960,490,2880,490C2800,490,2720,490,2640,490C2560,490,2480,490,2400,490C2320,490,2240,490,2160,490C2080,490,2000,490,1920,490C1840,490,1760,490,1680,490C1600,490,1520,490,1440,490C1360,490,1280,490,1200,490C1120,490,1040,490,960,490C880,490,800,490,720,490C640,490,560,490,480,490C400,490,320,490,240,490C160,490,80,490,40,490L0,490Z"/></svg>